<?xml version="1.0" standalone="no"?><!DOCTYPE svg PUBLIC "-//W3C//DTD SVG 1.1//EN" "http://www.w3.org/Graphics/SVG/1.1/DTD/svg11.dtd"><svg class="icon" width="200px" height="197.11px" viewBox="0 0 1039 1024" version="1.1" xmlns="http://www.w3.org/2000/svg"><path d="M440.591936 969.70235c-15.012925 0-27.233248-12.130272-27.233248-27.043936l0-62.942541c0-127.477346 77.281107-240.541425 196.874903-288.036136l7.17747-2.849908-6.093788-4.755304c-45.267996-35.371602-71.237461-88.195691-71.237461-144.946206 0-101.673657 83.276658-184.391591 185.640024-184.391591s185.623651 82.717933 185.623651 184.391591c0 56.757678-25.968441 109.589954-71.237461 144.946206l-6.093788 4.755304 7.17747 2.849908c119.610168 47.493687 196.891276 160.557766 196.874903 288.036136l0 62.942541c0 14.914688-12.220323 27.043936-27.233248 27.043936L440.591936 969.70235zM983.582764 915.613454l0-35.897581c0-141.266397-115.66737-256.19494-257.82916-256.19494-142.210909 0-257.912048 114.928542-257.912048 256.19494l0 35.897581L983.582764 915.613454zM725.719835 308.818461c-72.321142 0-131.157155 58.458413-131.157155 130.310881s58.836013 130.310881 131.157155 130.310881 131.157155-58.458413 131.157155-130.310881S798.040978 308.818461 725.719835 308.818461z"  /><path d="M359.449894 448.918289 227.521166 580.789713 270.227827 612.219539 417.16948 465.286072 417.16948 230.723825 359.449894 230.723825Z"  /><path d="M69.722234 503.8289c-18.083867-84.262102-2.282996-170.528861 44.512796-242.907309 46.77942-72.386634 118.953206-122.213459 203.231681-140.305513 22.387893-4.804423 45.284369-7.252171 68.033489-7.252171 86.151126 0 169.970136 35.380812 230.481302 97.173157l63.697741-22.790052C607.047016 101.906971 497.637163 50.857295 385.599461 50.857295c-27.118638 0-54.450123 2.915399-81.256652 8.67252C203.934981 81.095993 117.832975 140.605342 61.93692 227.101321 6.025516 313.590138-12.881089 416.519392 8.686112 516.928243c32.604582 151.811568 151.672398 268.251533 303.787888 297.43111l39.914058-57.201793C212.54201 743.360322 99.501467 642.492006 69.722234 503.8289z"  /></svg>