<?xml version="1.0" standalone="no"?><!DOCTYPE svg PUBLIC "-//W3C//DTD SVG 1.1//EN" "http://www.w3.org/Graphics/SVG/1.1/DTD/svg11.dtd"><svg class="icon" width="200px" height="200.00px" viewBox="0 0 1024 1024" version="1.1" xmlns="http://www.w3.org/2000/svg"><path d="M874.249 686.083c0-18.21 14.768-32.979 32.979-32.979s32.98 14.77 32.98 32.979v173.143c0 83.041-74.729 148.407-164.897 148.407h-593.63c-90.167 0-164.897-65.366-164.897-148.407V166.657c0-83.041 74.729-148.407 164.897-148.407h395.753c18.211 0 32.98 14.766 32.98 32.979s-14.77 32.979-32.98 32.979H181.681c-55.539 0-98.938 37.994-98.938 82.449v692.568c0 44.455 43.399 82.448 98.938 82.448h593.63c55.539 0 98.938-37.993 98.938-82.448V686.083z" fill="#444444" /><path d="M221.256 780.931c-18.211 0-32.979-14.764-32.979-32.98 0-18.211 14.769-32.979 32.979-32.979h527.67c18.211 0 32.98 14.768 32.98 32.979 0 18.217-14.77 32.98-32.98 32.98h-527.67zM834.276 18.25a65.305 65.305 0 0 1 46.635 19.458l106.194 107.91c25.441 25.933 25.441 67.463 0 93.396L673.209 557.793c-25.725 26.121-75.725 49.665-112.002 52.767l-85.215 7.122-27.837 2.309c-18.159 1.442-34.041-12.109-35.484-30.269a33.013 33.013 0 0 1 0-5.148l2.242-28.233 7.122-86.535c2.968-36.543 26.054-87.065 51.648-113.186L787.646 37.708a65.287 65.287 0 0 1 46.63-19.458zM520.709 402.79c-14.773 15.104-31.196 51.185-32.979 72.356l-6.199 75.856 74.137-6.204c20.514-1.778 55.868-18.402 70.575-33.307l313.83-318.78c0.135-0.067-35.153-36.21-105.797-108.371L520.709 402.857v-0.067z" fill="#444444" /></svg>